<svg width="156" height="56" viewBox="0 0 156 56" fill="none" xmlns="http://www.w3.org/2000/svg">
<path d="M63.8633 32.5381H69.4111C69.2998 34.3564 68.7988 35.9707 67.9082 37.3809C67.0299 38.791 65.7992 39.8919 64.2158 40.6836C62.6449 41.4753 60.7523 41.8711 58.5381 41.8711C56.8063 41.8711 55.2539 41.5742 53.8809 40.9805C52.5078 40.3743 51.3327 39.5085 50.3555 38.3828C49.3906 37.2572 48.6546 35.8965 48.1475 34.3008C47.6403 32.7051 47.3867 30.9176 47.3867 28.9385V27.0645C47.3867 25.0853 47.6465 23.2979 48.166 21.7021C48.6979 20.0941 49.4525 18.7272 50.4297 17.6016C51.4193 16.4759 52.6006 15.61 53.9736 15.0039C55.3467 14.3978 56.8805 14.0947 58.5752 14.0947C60.8265 14.0947 62.7253 14.5029 64.2715 15.3193C65.8301 16.1357 67.0361 17.2614 67.8896 18.6963C68.7555 20.1312 69.2751 21.764 69.4482 23.5947H63.8818C63.82 22.5062 63.6035 21.5846 63.2324 20.8301C62.8613 20.0632 62.2985 19.488 61.5439 19.1045C60.8018 18.7087 59.8122 18.5107 58.5752 18.5107C57.6475 18.5107 56.8372 18.6839 56.1445 19.0303C55.4518 19.3766 54.8704 19.9023 54.4004 20.6074C53.9303 21.3125 53.5778 22.2031 53.3428 23.2793C53.1201 24.3431 53.0088 25.5924 53.0088 27.0273V28.9385C53.0088 30.3363 53.1139 31.5671 53.3242 32.6309C53.5345 33.6823 53.8561 34.5729 54.2891 35.3027C54.7344 36.0202 55.3034 36.5645 55.9961 36.9355C56.7012 37.2943 57.5485 37.4736 58.5381 37.4736C59.7008 37.4736 60.6595 37.2881 61.4141 36.917C62.1686 36.5459 62.7438 35.9954 63.1396 35.2656C63.5479 34.5358 63.7891 33.6266 63.8633 32.5381ZM78.373 13V41.5H73.0107V13H78.373ZM81.9355 31.666V31.2764C81.9355 29.8044 82.1458 28.4499 82.5664 27.2129C82.987 25.9635 83.5993 24.8812 84.4033 23.9658C85.2074 23.0505 86.1969 22.3392 87.3721 21.832C88.5472 21.3125 89.8955 21.0527 91.417 21.0527C92.9385 21.0527 94.293 21.3125 95.4805 21.832C96.668 22.3392 97.6637 23.0505 98.4678 23.9658C99.2842 24.8812 99.9027 25.9635 100.323 27.2129C100.744 28.4499 100.954 29.8044 100.954 31.2764V31.666C100.954 33.1257 100.744 34.4801 100.323 35.7295C99.9027 36.9665 99.2842 38.0488 98.4678 38.9766C97.6637 39.8919 96.6742 40.6032 95.499 41.1104C94.3239 41.6175 92.9756 41.8711 91.4541 41.8711C89.9326 41.8711 88.5781 41.6175 87.3906 41.1104C86.2155 40.6032 85.2197 39.8919 84.4033 38.9766C83.5993 38.0488 82.987 36.9665 82.5664 35.7295C82.1458 34.4801 81.9355 33.1257 81.9355 31.666ZM87.2793 31.2764V31.666C87.2793 32.5072 87.3535 33.2926 87.502 34.0225C87.6504 34.7523 87.8854 35.3955 88.207 35.9521C88.541 36.4964 88.974 36.9232 89.5059 37.2324C90.0378 37.5417 90.6872 37.6963 91.4541 37.6963C92.1963 37.6963 92.8333 37.5417 93.3652 37.2324C93.8971 36.9232 94.3239 36.4964 94.6455 35.9521C94.9671 35.3955 95.2021 34.7523 95.3506 34.0225C95.5114 33.2926 95.5918 32.5072 95.5918 31.666V31.2764C95.5918 30.46 95.5114 29.693 95.3506 28.9756C95.2021 28.2458 94.9609 27.6025 94.627 27.0459C94.3053 26.4769 93.8786 26.0316 93.3467 25.71C92.8148 25.3883 92.1715 25.2275 91.417 25.2275C90.6624 25.2275 90.0192 25.3883 89.4873 25.71C88.9678 26.0316 88.541 26.4769 88.207 27.0459C87.8854 27.6025 87.6504 28.2458 87.502 28.9756C87.3535 29.693 87.2793 30.46 87.2793 31.2764ZM114.072 21.4238V25.209H102.383V21.4238H114.072ZM105.277 16.4697H110.621V35.4512C110.621 36.0326 110.695 36.4779 110.844 36.7871C111.005 37.0964 111.24 37.3128 111.549 37.4365C111.858 37.5479 112.248 37.6035 112.718 37.6035C113.052 37.6035 113.349 37.5911 113.608 37.5664C113.881 37.5293 114.109 37.4922 114.295 37.4551L114.313 41.3887C113.856 41.5371 113.361 41.6546 112.829 41.7412C112.297 41.8278 111.71 41.8711 111.066 41.8711C109.891 41.8711 108.865 41.6794 107.986 41.2959C107.12 40.9001 106.452 40.2692 105.982 39.4033C105.512 38.5374 105.277 37.3994 105.277 35.9893V16.4697ZM122.329 13V41.5H116.985V13H122.329ZM121.568 30.7568H120.103C120.115 29.359 120.3 28.0726 120.659 26.8975C121.018 25.71 121.531 24.6833 122.199 23.8174C122.867 22.9391 123.665 22.2588 124.593 21.7764C125.533 21.2939 126.572 21.0527 127.71 21.0527C128.7 21.0527 129.596 21.195 130.4 21.4795C131.217 21.7516 131.916 22.1969 132.497 22.8154C133.091 23.4215 133.549 24.2194 133.87 25.209C134.192 26.1986 134.353 27.3984 134.353 28.8086V41.5H128.972V28.7715C128.972 27.8809 128.842 27.182 128.582 26.6748C128.335 26.1553 127.97 25.7904 127.487 25.5801C127.017 25.3574 126.436 25.2461 125.743 25.2461C124.976 25.2461 124.321 25.3883 123.776 25.6729C123.244 25.9574 122.818 26.3532 122.496 26.8604C122.174 27.3551 121.939 27.9365 121.791 28.6045C121.643 29.2725 121.568 29.9899 121.568 30.7568ZM144.372 39.2363L149.697 21.4238H155.431L147.359 44.5244C147.186 45.0316 146.951 45.5758 146.654 46.1572C146.37 46.7386 145.98 47.2891 145.485 47.8086C145.003 48.3405 144.391 48.7734 143.648 49.1074C142.919 49.4414 142.022 49.6084 140.958 49.6084C140.451 49.6084 140.036 49.5775 139.715 49.5156C139.393 49.4538 139.01 49.3672 138.564 49.2559V45.3408C138.701 45.3408 138.843 45.3408 138.991 45.3408C139.14 45.3532 139.282 45.3594 139.418 45.3594C140.123 45.3594 140.698 45.279 141.144 45.1182C141.589 44.9574 141.948 44.71 142.22 44.376C142.492 44.0544 142.708 43.6338 142.869 43.1143L144.372 39.2363ZM142.146 21.4238L146.506 35.9707L147.267 41.6299L143.63 42.0195L136.412 21.4238H142.146Z" fill="#274C5B"/>
<path d="M1.85071 42.0684H19.291H36.7313" stroke="#7EB693" stroke-width="2" stroke-miterlimit="10"/>
<path d="M5.79102 48.5L19.291 48.5L32.791 48.5" stroke="#7EB693" stroke-width="2" stroke-miterlimit="10"/>
<path d="M18.791 1.5L18.791 8.5L18.791 15.5" stroke="#7EB693" stroke-width="2" stroke-miterlimit="10"/>
<path d="M18.8656 14.7842V41.2158" stroke="#7EB693" stroke-width="2" stroke-miterlimit="10"/>
<path d="M29.9253 4.55273L18.8656 15.6369" stroke="#7EB693" stroke-width="2" stroke-miterlimit="10"/>
<path d="M34.179 8.81592L18.8656 24.1633" stroke="#7EB693" stroke-width="2" stroke-miterlimit="10"/>
<path d="M36.7313 15.6367L18.8656 32.6893" stroke="#7EB693" stroke-width="2" stroke-miterlimit="10"/>
<path d="M37.582 23.3105L18.8656 42.0684" stroke="#7EB693" stroke-width="2" stroke-miterlimit="10"/>
<path d="M37.582 31.8369L27.373 42.0685" stroke="#7EB693" stroke-width="2" stroke-miterlimit="10"/>
<path d="M1 31.8369L11.209 42.0685" stroke="#7EB693" stroke-width="2" stroke-miterlimit="10"/>
<path d="M8.65674 4.55273L18.8657 15.6369" stroke="#7EB693" stroke-width="2" stroke-miterlimit="10"/>
<path d="M4.40295 8.81592L18.8656 24.1633" stroke="#7EB693" stroke-width="2" stroke-miterlimit="10"/>
<path d="M1.85071 14.7842L18.8656 32.6894" stroke="#7EB693" stroke-width="2" stroke-miterlimit="10"/>
<path d="M1 22.458L18.8657 41.2159" stroke="#7EB693" stroke-width="2" stroke-miterlimit="10"/>
<path d="M19.291 54.8579C9.19019 54.8579 1 46.4056 1 35.9772V20.0227C1 9.59628 9.19019 1.14209 19.291 1.14209C29.3937 1.14209 37.5821 9.59628 37.5821 20.0227V35.9772C37.5839 46.4056 29.3937 54.8579 19.291 54.8579Z" stroke="#7EB693" stroke-width="2" stroke-miterlimit="10"/>
</svg>
